HIERARCHY
ROOT Hips
{
	OFFSET	0.00	0.00	0.00
	CHANNELS 6 Xposition Yposition Zposition Zrotation Xrotation Yrotation
	JOINT LeftUpLeg
	{
		OFFSET	 0.126116	-0.065224	 0.014019
		CHANNELS 3 Zrotation Xrotation Yrotation
		JOINT LeftLeg
		{
			OFFSET	 0.000000	 0.569914	 0.000000
			CHANNELS 3 Zrotation Xrotation Yrotation
			JOINT LeftFoot
			{
				OFFSET	 0.000000	 0.544423	 0.000000
				CHANNELS 3 Zrotation Xrotation Yrotation
				JOINT LeftToeBase
				{
					OFFSET	 0.000000	 0.207117	 0.000000
					CHANNELS 3 Zrotation Xrotation Yrotation
					End Site
					{
						OFFSET	 0.000000	 0.207117	 0.000000
					}
				}
			}
		}
	}
	JOINT RightUpLeg
	{
		OFFSET	-0.124023	-0.065224	 0.008373
		CHANNELS 3 Zrotation Xrotation Yrotation
		JOINT RightLeg
		{
			OFFSET	 0.000000	 0.570047	 0.000000
			CHANNELS 3 Zrotation Xrotation Yrotation
			JOINT RightFoot
			{
				OFFSET	 0.000000	 0.544354	 0.000000
				CHANNELS 3 Zrotation Xrotation Yrotation
				JOINT RightToeBase
				{
					OFFSET	 0.000000	 0.207540	 0.000000
					CHANNELS 3 Zrotation Xrotation Yrotation
					End Site
					{
						OFFSET	 0.000000	 0.207540	 0.000000
					}
				}
			}
		}
	}
	JOINT Spine
	{
		OFFSET	 0.000184	 0.117403	 0.007763
		CHANNELS 3 Zrotation Xrotation Yrotation
		JOINT Spine1
		{
			OFFSET	 0.000000	 0.137269	 0.000000
			CHANNELS 3 Zrotation Xrotation Yrotation
			JOINT Spine2
			{
				OFFSET	 0.000000	 0.156879	 0.000000
				CHANNELS 3 Zrotation Xrotation Yrotation
				JOINT LeftShoulder
				{
					OFFSET	 0.080501	 0.160143	 0.002496
					CHANNELS 3 Zrotation Xrotation Yrotation
					JOINT LeftArm
					{
						OFFSET	 0.000000	 0.164363	 0.000000
						CHANNELS 3 Zrotation Xrotation Yrotation
						JOINT LeftForeArm
						{
							OFFSET	 0.000000	 0.364576	 0.000000
							CHANNELS 3 Zrotation Xrotation Yrotation
							JOINT LeftHand
							{
								OFFSET	 0.000000	 0.360812	 0.000000
								CHANNELS 3 Zrotation Xrotation Yrotation
								JOINT LeftHandIndex1
								{
									OFFSET	 0.000000	 0.086006	 0.000000
									CHANNELS 3 Zrotation Xrotation Yrotation
									JOINT LeftHandIndex2
									{
										OFFSET	 0.000000	 0.047237	 0.000000
										CHANNELS 3 Zrotation Xrotation Yrotation
										JOINT LeftHandIndex3
										{
											OFFSET	-0.004284	 0.038165	 0.000551
											CHANNELS 3 Zrotation Xrotation Yrotation
											End Site
											{
												OFFSET	-0.004284	 0.038165	 0.000551
											}
										}
									}
								}
							}
						}
					}
				}
				JOINT Neck
				{
					OFFSET	 0.000000	 0.176489	 0.000000
					CHANNELS 3 Zrotation Xrotation Yrotation
					JOINT Head
					{
						OFFSET	 0.000000	 0.077941	 0.001747
						CHANNELS 3 Zrotation Xrotation Yrotation
						End Site
						{
							OFFSET	 0.000000	 0.077941	 0.001747
						}
					}
				}
				JOINT RightShoulder
				{
					OFFSET	-0.080363	 0.159706	-0.000306
					CHANNELS 3 Zrotation Xrotation Yrotation
					JOINT RightArm
					{
						OFFSET	 0.000000	 0.164196	 0.000000
						CHANNELS 3 Zrotation Xrotation Yrotation
						JOINT RightForeArm
						{
							OFFSET	 0.000000	 0.365611	 0.000000
							CHANNELS 3 Zrotation Xrotation Yrotation
							JOINT RightHand
							{
								OFFSET	 0.000000	 0.360648	 0.000000
								CHANNELS 3 Zrotation Xrotation Yrotation
								JOINT RightHandIndex1
								{
									OFFSET	 0.000000	 0.069977	 0.000000
									CHANNELS 3 Zrotation Xrotation Yrotation
									JOINT RightHandIndex2
									{
										OFFSET	 0.000000	 0.052305	 0.000000
										CHANNELS 3 Zrotation Xrotation Yrotation
										JOINT RightHandIndex3
										{
											OFFSET	 0.009002	 0.042196	 0.000782
											CHANNELS 3 Zrotation Xrotation Yrotation
											End Site
											{
												OFFSET	 0.009002	 0.042196	 0.000782
											}
										}
									}
								}
							}
						}
					}
				}
			}
		}
	}
}
MOTION
Frames:    8
Frame Time: 0.03333334
-0.003907	 1.233544	 0.011764	 0.898298	 0.205935	 171.864500	-159.695000	 9.085588	-34.531230	 3.388563	-12.517560	 2.303929	-8.957906	 57.391220	 2.338013	 1.161593	 26.683390	-2.659486	 169.423400	 10.337570	 25.649500	-2.500425	-29.994150	 7.624223	 12.535660	 76.113400	-8.121381	-1.288579	 28.367030	 2.710343	 2.644174	 6.895412	 12.061070	-7.019800	 2.061356	 5.917918	 9.367920	-1.131525	-13.826090	-113.008800	 6.510149	 92.954650	 26.398860	 48.123760	 0.095881	 5.020695	-0.258643	-0.060773	 16.863710	 20.999420	 43.630960	 0.706134	 8.202483	-0.354636	-5.947782	 13.678890	 1.528815	 4.993283	-3.352729	-0.330850	 3.180533	-6.829610	 0.901521	-1.200145	-5.969554	-0.074327	 123.334000	 10.393950	-96.370370	-8.949188	 38.793510	-0.386493	-5.108160	-0.200184	 0.037872	 5.720819	 8.375795	 12.381660	-2.360162	 5.009394	 0.894201	 12.561960	 23.225600	-5.238581	-8.502985	 13.369440	-0.542371
-0.004138	 1.233337	 0.012462	 0.795836	-0.064116	 171.051700	-159.529100	 9.269424	-35.434250	 3.494493	-12.895550	 1.991036	-9.585404	 57.622800	 3.010682	 1.160868	 26.673580	-2.659199	 169.342900	 10.872330	 25.223760	-2.508277	-30.169260	 7.282916	 10.996750	 76.069210	-6.546748	-1.287886	 28.357920	 2.710050	 2.708743	 6.931936	 13.361670	-8.292131	 1.659030	 6.580274	 9.965517	-0.695935	-13.575850	-112.692900	 6.554700	 92.987680	 27.036050	 48.004450	-0.045742	 5.035378	-0.257949	-0.040895	 16.024770	 21.557180	 45.108200	 0.951235	 7.440945	-0.350184	-5.944705	 13.849870	 1.547152	 5.005628	-3.080975	-0.324345	 3.171573	-6.836288	 0.953144	-1.204102	-6.031138	 0.329947	 123.122200	 10.428370	-96.348120	-9.002460	 39.253380	-0.123241	-5.121227	-0.199586	 0.018103	 5.730894	 8.320012	 14.111460	-2.448872	 5.287197	 0.891046	 12.617550	 23.958670	-5.417239	-8.507909	 13.969470	-0.580285
-0.004346	 1.233175	 0.013146	 0.704387	-0.319124	 170.323800	-159.370300	 9.436206	-36.246870	 3.583862	-13.213400	 1.709029	-10.154220	 57.813790	 3.618019	 1.160218	 26.664780	-2.658941	 169.280800	 11.359670	 24.842270	-2.513886	-30.308500	 6.976872	 9.601875	 76.009490	-5.118620	-1.287263	 28.349720	 2.709786	 2.748938	 6.956262	 14.547950	-9.465436	 1.299796	 7.208592	 10.499480	-0.289681	-13.303330	-112.409000	 6.594884	 93.017160	 27.639590	 47.827580	-0.198782	 5.047766	-0.257369	-0.023023	 15.192130	 22.064210	 46.442960	 1.171340	 6.756169	-0.343386	-5.941987	 14.003510	 1.563633	 5.016692	-2.836765	-0.318551	 3.163527	-6.842295	 0.999530	-1.208912	-6.076711	 0.705770	 122.931800	 10.459230	-96.327980	-9.052818	 39.704000	 0.105840	-5.129479	-0.198888	 0.000200	 5.724706	 8.294795	 15.657880	-2.528613	 5.536848	 0.888579	 12.669960	 24.617680	-5.579430	-8.511996	 14.508860	-0.614408
-0.004562	 1.233043	 0.013865	 0.617022	-0.582811	 169.610500	-159.202800	 9.604280	-37.047070	 3.667289	-13.509510	 1.431118	-10.716720	 57.988090	 4.216640	 1.159578	 26.656120	-2.658686	 169.232500	 11.844560	 24.468400	-2.517658	-30.424780	 6.676911	 8.224662	 75.929930	-3.708359	-1.286651	 28.341670	 2.709527	 2.769763	 6.972848	 15.712150	-10.616840	 0.929006	 7.841335	 11.002260	 0.147187	-12.973610	-112.130000	 6.634535	 93.045940	 28.263000	 47.588380	-0.373421	 5.059426	-0.256691	-0.005439	 14.290820	 22.550810	 47.707550	 1.387606	 6.082719	-0.334129	-5.939357	 14.154530	 1.579835	 5.027544	-2.596713	-0.312903	 3.155624	-6.848207	 1.045123	-1.215423	-6.108639	 1.091506	 122.744600	 10.489510	-96.308130	-9.121284	 40.180150	 0.334518	-5.136337	-0.198197	-0.017278	 5.719618	 8.297282	 17.109110	-2.607019	 5.782253	 0.886493	 12.723780	 25.265630	-5.740431	-8.515702	 15.039210	-0.648004
-0.004756	 1.232960	 0.014469	 0.550955	-0.805154	 169.041500	-159.057400	 9.746137	-37.688550	 3.732611	-13.740720	 1.208747	-11.169170	 58.121130	 4.696523	 1.159066	 26.649190	-2.658483	 169.205800	 12.236650	 24.170060	-2.519158	-30.499980	 6.437672	 7.120116	 75.849610	-2.577136	-1.286161	 28.335230	 2.709320	 2.773336	 6.981694	 16.623520	-11.515170	 0.599883	 8.342933	 11.372830	 0.550048	-12.644100	-111.906700	 6.666354	 93.068820	 28.787130	 47.347280	-0.536243	 5.067043	-0.256046	 0.008623	 13.497780	 22.917720	 48.630180	 1.560585	 5.543755	-0.324888	-5.937284	 14.275340	 1.592800	 5.036205	-2.404671	-0.308418	 3.149305	-6.852939	 1.081595	-1.222589	-6.120551	 1.417389	 122.594900	 10.513690	-96.292140	-9.206486	 40.584770	 0.530593	-5.140011	-0.197567	-0.031315	 5.729441	 8.323373	 18.155720	-2.669764	 5.978582	 0.885067	 12.768520	 25.784090	-5.870395	-8.518440	 15.463590	-0.674921
-0.004965	 1.232903	 0.015047	 0.495772	-1.022718	 168.515500	-158.909000	 9.888653	-38.284490	 3.794112	-13.958040	 1.003157	-11.590980	 58.243420	 5.142203	 1.158592	 26.642770	-2.658296	 169.194500	 12.603410	 23.894450	-2.518938	-30.551620	 6.216857	 6.097437	 75.759480	-1.529947	-1.285708	 28.329260	 2.709128	 2.767823	 6.989342	 17.427870	-12.307540	 0.242565	 8.784978	 11.672020	 1.002078	-12.254840	-111.700000	 6.695912	 93.089920	 29.297650	 47.077770	-0.708793	 5.073332	-0.255439	 0.021559	 12.686640	 23.223110	 49.334340	 1.720816	 5.044359	-0.314874	-5.935388	 14.387250	 1.604811	 5.044214	-2.226775	-0.304290	 3.143454	-6.857328	 1.115379	-1.231726	-6.114360	 1.741171	 122.456100	 10.536030	-96.277300	-9.328215	 40.980530	 0.735115	-5.142516	-0.196956	-0.044293	 5.767188	 8.372906	 18.945060	-2.727902	 6.160450	 0.883938	 12.811330	 26.264400	-5.991734	-8.520800	 15.856770	-0.699891
-0.005159	 1.232874	 0.015495	 0.461103	-1.196821	 168.117000	-158.782700	 10.008120	-38.737710	 3.843580	-14.132490	 0.848097	-11.912920	 58.339710	 5.480515	 1.158233	 26.637910	-2.658153	 169.198500	 12.883170	 23.685820	-2.517361	-30.575370	 6.050161	 5.325304	 75.678680	-0.739653	-1.285364	 28.324740	 2.708983	 2.759596	 7.001853	 17.985070	-12.862490	-0.095596	 9.084039	 11.850580	 1.439962	-11.867000	-111.543100	 6.718371	 93.105840	 29.709830	 46.834120	-0.862797	 5.075634	-0.254903	 0.031327	 11.999290	 23.416060	 49.680920	 1.842309	 4.665654	-0.306351	-5.933966	 14.472100	 1.613919	 5.050277	-2.091897	-0.301177	 3.139020	-6.860656	 1.140993	-1.241343	-6.091102	 2.010699	 122.350900	 10.552970	-96.265990	-9.469599	 41.297220	 0.918439	-5.142234	-0.196404	-0.054163	 5.832706	 8.433390	 19.325110	-2.771994	 6.298340	 0.883206	 12.844660	 26.628590	-6.084357	-8.522472	 16.154910	-0.718846
-0.005352	 1.232861	 0.015857	 0.442125	-1.343815	 167.802300	-158.667900	 10.116830	-39.097660	 3.887020	-14.285460	 0.726726	-12.169990	 58.422560	 5.749009	 1.157949	 26.634070	-2.658041	 169.214300	 13.106180	 23.607590	-2.565605	-30.575930	 5.819173	 4.717079	 75.603960	-0.117572	-1.285093	 28.321160	 2.708868	 2.753261	 7.022111	 18.359170	-13.249920	-0.442898	 9.272881	 11.937400	 1.898494	-11.453410	-111.419300	 6.736149	 93.118380	 30.060140	 46.604440	-1.007566	 5.077585	-0.254385	 0.039157	 11.379580	 23.525360	 49.724540	 1.938324	 4.366363	-0.299048	-5.932850	 14.539150	 1.621117	 5.055063	-1.985316	-0.298727	 3.135517	-6.863289	 1.161232	-1.251909	-6.051840	 2.251326	 122.267800	 10.566310	-96.257030	-9.636091	 41.562660	 1.095825	-5.139649	-0.195859	-0.061899	 5.930282	 8.502813	 19.362490	-2.806842	 6.407303	 0.882702	 12.871550	 26.916380	-6.157936	-8.523720	 16.390520	-0.733840
